<?xml version="1.0" encoding="UTF-8"?><svg xmlns="http://www.w3.org/2000/svg" xmlns:xlink="http://www.w3.org/1999/xlink" fill-opacity="1" color-rendering="auto" color-interpolation="auto" text-rendering="auto" stroke="black" stroke-linecap="square" width="401" stroke-miterlimit="10" shape-rendering="auto" stroke-opacity="1" fill="black" stroke-dasharray="none" font-weight="normal" stroke-width="1" height="881" font-family="'Dialog'" font-style="normal" stroke-linejoin="miter" font-size="12px" stroke-dashoffset="0" image-rendering="auto">
  <!--Generated by ySVG 2.5-->
  <defs id="genericDefs"/>
  <g>
    <defs id="defs1">
      <clipPath clipPathUnits="userSpaceOnUse" id="clipPath1">
        <path d="M0 0 L401 0 L401 881 L0 881 L0 0 Z"/>
      </clipPath>
      <clipPath clipPathUnits="userSpaceOnUse" id="clipPath2">
        <path d="M584 457 L985 457 L985 1338 L584 1338 L584 457 Z"/>
      </clipPath>
    </defs>
    <g fill="white" text-rendering="geometricPrecision" shape-rendering="geometricPrecision" transform="translate(-584,-457)" stroke="white">
      <rect x="584" width="401" height="881" y="457" clip-path="url(#clipPath2)" stroke="none"/>
    </g>
    <g transform="matrix(1,0,0,1,-584,-457)" fill-opacity="0.5176" fill="rgb(202,236,255)" text-rendering="geometricPrecision" shape-rendering="geometricPrecision" stroke="rgb(202,236,255)" stroke-opacity="0.5176">
      <rect x="729.1611" y="636.5794" clip-path="url(#clipPath2)" width="240.6777" rx="4" ry="4" height="105.5" stroke="none"/>
    </g>
    <g fill="rgb(153,204,255)" text-rendering="geometricPrecision" shape-rendering="geometricPrecision" transform="matrix(1,0,0,1,-584,-457)" stroke="rgb(153,204,255)">
      <rect x="729.1611" width="240.6777" height="22.3765" y="636.5794" clip-path="url(#clipPath2)" stroke="none"/>
    </g>
    <g font-size="15px" stroke-linecap="butt" transform="matrix(1,0,0,1,-584,-457)" text-rendering="geometricPrecision" font-family="sans-serif" shape-rendering="geometricPrecision" stroke-miterlimit="1.45">
      <text x="913.6323" xml:space="preserve" y="653.6599" clip-path="url(#clipPath2)" stroke="none">Plugin 1</text>
      <text x="754.89" xml:space="preserve" font-size="12px" y="689.2367" clip-path="url(#clipPath2)" stroke="none">namespace \Plugin1</text>
    </g>
    <g stroke-linecap="round" transform="matrix(1,0,0,1,-584,-457)" stroke-dashoffset="2" fill="rgb(102,102,153)" text-rendering="geometricPrecision" shape-rendering="geometricPrecision" stroke-dasharray="0,4" stroke="rgb(102,102,153)" stroke-miterlimit="1.45">
      <rect x="729.1611" y="636.5794" clip-path="url(#clipPath2)" fill="none" width="240.6777" rx="4" ry="4" height="105.5"/>
    </g>
    <g fill="rgb(255,204,0)" text-rendering="geometricPrecision" shape-rendering="geometricPrecision" transform="matrix(1,0,0,1,-584,-457)" stroke="rgb(255,204,0)">
      <rect x="772.28" width="70" height="30" y="697.0794" clip-path="url(#clipPath2)" stroke="none"/>
    </g>
    <g text-rendering="geometricPrecision" stroke-miterlimit="1.45" shape-rendering="geometricPrecision" transform="matrix(1,0,0,1,-584,-457)" stroke-linecap="butt">
      <rect fill="none" x="772.28" width="70" height="30" y="697.0794" clip-path="url(#clipPath2)"/>
      <text x="787.9412" xml:space="preserve" y="716.7932" clip-path="url(#clipPath2)" font-family="sans-serif" stroke="none">class A</text>
    </g>
    <g transform="matrix(1,0,0,1,-584,-457)" fill-opacity="0.5176" fill="rgb(202,236,255)" text-rendering="geometricPrecision" shape-rendering="geometricPrecision" stroke="rgb(202,236,255)" stroke-opacity="0.5176">
      <rect x="729.1611" y="785.2394" clip-path="url(#clipPath2)" width="240.6777" rx="4" ry="4" height="105.5" stroke="none"/>
    </g>
    <g fill="rgb(153,204,255)" text-rendering="geometricPrecision" shape-rendering="geometricPrecision" transform="matrix(1,0,0,1,-584,-457)" stroke="rgb(153,204,255)">
      <rect x="729.1611" width="240.6777" height="22.3765" y="785.2394" clip-path="url(#clipPath2)" stroke="none"/>
    </g>
    <g font-size="15px" stroke-linecap="butt" transform="matrix(1,0,0,1,-584,-457)" text-rendering="geometricPrecision" font-family="sans-serif" shape-rendering="geometricPrecision" stroke-miterlimit="1.45">
      <text x="913.6323" xml:space="preserve" y="802.3199" clip-path="url(#clipPath2)" stroke="none">Plugin 2</text>
      <text x="754.89" xml:space="preserve" font-size="12px" y="837.8967" clip-path="url(#clipPath2)" stroke="none">namespace \Plugin2</text>
    </g>
    <g stroke-linecap="round" transform="matrix(1,0,0,1,-584,-457)" stroke-dashoffset="2" fill="rgb(102,102,153)" text-rendering="geometricPrecision" shape-rendering="geometricPrecision" stroke-dasharray="0,4" stroke="rgb(102,102,153)" stroke-miterlimit="1.45">
      <rect x="729.1611" y="785.2394" clip-path="url(#clipPath2)" fill="none" width="240.6777" rx="4" ry="4" height="105.5"/>
    </g>
    <g fill="rgb(255,204,0)" text-rendering="geometricPrecision" shape-rendering="geometricPrecision" transform="matrix(1,0,0,1,-584,-457)" stroke="rgb(255,204,0)">
      <rect x="772.28" width="70" height="30" y="845.7394" clip-path="url(#clipPath2)" stroke="none"/>
    </g>
    <g text-rendering="geometricPrecision" stroke-miterlimit="1.45" shape-rendering="geometricPrecision" transform="matrix(1,0,0,1,-584,-457)" stroke-linecap="butt">
      <rect fill="none" x="772.28" width="70" height="30" y="845.7394" clip-path="url(#clipPath2)"/>
      <text x="787.9412" xml:space="preserve" y="865.4532" clip-path="url(#clipPath2)" font-family="sans-serif" stroke="none">class A</text>
    </g>
    <g fill="rgb(255,204,0)" text-rendering="geometricPrecision" shape-rendering="geometricPrecision" transform="matrix(1,0,0,1,-584,-457)" stroke="rgb(255,204,0)">
      <rect x="858.2235" width="70" height="30" y="845.7394" clip-path="url(#clipPath2)" stroke="none"/>
    </g>
    <g text-rendering="geometricPrecision" stroke-miterlimit="1.45" shape-rendering="geometricPrecision" transform="matrix(1,0,0,1,-584,-457)" stroke-linecap="butt">
      <rect fill="none" x="858.2235" width="70" height="30" y="845.7394" clip-path="url(#clipPath2)"/>
      <text x="873.8847" xml:space="preserve" y="865.4532" clip-path="url(#clipPath2)" font-family="sans-serif" stroke="none">class B</text>
      <path fill="none" d="M807.28 845.7394 L807.28 742.0793" clip-path="url(#clipPath2)"/>
      <path fill="white" d="M807.28 727.0793 L801.28 743.0793 L813.28 743.0793 Z" clip-path="url(#clipPath2)" stroke="none"/>
      <path fill="none" d="M807.28 727.0793 L801.28 743.0793 L813.28 743.0793 Z" clip-path="url(#clipPath2)"/>
    </g>
    <g transform="matrix(1,0,0,1,-584,-457)" fill-opacity="0.5176" fill="rgb(202,236,255)" text-rendering="geometricPrecision" shape-rendering="geometricPrecision" stroke="rgb(202,236,255)" stroke-opacity="0.5176">
      <rect x="729.1611" y="941.3994" clip-path="url(#clipPath2)" width="240.6777" rx="4" ry="4" height="105.5" stroke="none"/>
    </g>
    <g fill="rgb(153,204,255)" text-rendering="geometricPrecision" shape-rendering="geometricPrecision" transform="matrix(1,0,0,1,-584,-457)" stroke="rgb(153,204,255)">
      <rect x="729.1611" width="240.6777" height="22.3765" y="941.3994" clip-path="url(#clipPath2)" stroke="none"/>
    </g>
    <g font-size="15px" stroke-linecap="butt" transform="matrix(1,0,0,1,-584,-457)" text-rendering="geometricPrecision" font-family="sans-serif" shape-rendering="geometricPrecision" stroke-miterlimit="1.45">
      <text x="913.6323" xml:space="preserve" y="958.4799" clip-path="url(#clipPath2)" stroke="none">Plugin 3</text>
      <text x="754.89" xml:space="preserve" font-size="12px" y="994.0566" clip-path="url(#clipPath2)" stroke="none">namespace \Plugin3</text>
    </g>
    <g stroke-linecap="round" transform="matrix(1,0,0,1,-584,-457)" stroke-dashoffset="2" fill="rgb(102,102,153)" text-rendering="geometricPrecision" shape-rendering="geometricPrecision" stroke-dasharray="0,4" stroke="rgb(102,102,153)" stroke-miterlimit="1.45">
      <rect x="729.1611" y="941.3994" clip-path="url(#clipPath2)" fill="none" width="240.6777" rx="4" ry="4" height="105.5"/>
    </g>
    <g fill="rgb(255,204,0)" text-rendering="geometricPrecision" shape-rendering="geometricPrecision" transform="matrix(1,0,0,1,-584,-457)" stroke="rgb(255,204,0)">
      <rect x="858.2235" width="70" height="30" y="1001.8994" clip-path="url(#clipPath2)" stroke="none"/>
    </g>
    <g text-rendering="geometricPrecision" stroke-miterlimit="1.45" shape-rendering="geometricPrecision" transform="matrix(1,0,0,1,-584,-457)" stroke-linecap="butt">
      <rect fill="none" x="858.2235" width="70" height="30" y="1001.8994" clip-path="url(#clipPath2)"/>
      <text x="873.8847" xml:space="preserve" y="1021.6132" clip-path="url(#clipPath2)" font-family="sans-serif" stroke="none">class B</text>
      <path fill="none" d="M893.2236 1001.8994 L893.2236 890.7394" clip-path="url(#clipPath2)"/>
      <path fill="white" d="M893.2236 875.7394 L887.2236 891.7394 L899.2236 891.7394 Z" clip-path="url(#clipPath2)" stroke="none"/>
      <path fill="none" d="M893.2236 875.7394 L887.2236 891.7394 L899.2236 891.7394 Z" clip-path="url(#clipPath2)"/>
    </g>
    <g transform="matrix(1,0,0,1,-584,-457)" fill-opacity="0.5176" fill="rgb(202,236,255)" text-rendering="geometricPrecision" shape-rendering="geometricPrecision" stroke="rgb(202,236,255)" stroke-opacity="0.5176">
      <rect x="729.1611" y="1097.5594" clip-path="url(#clipPath2)" width="240.6777" rx="4" ry="4" height="105.5" stroke="none"/>
    </g>
    <g fill="rgb(153,204,255)" text-rendering="geometricPrecision" shape-rendering="geometricPrecision" transform="matrix(1,0,0,1,-584,-457)" stroke="rgb(153,204,255)">
      <rect x="729.1611" width="240.6777" height="22.3765" y="1097.5594" clip-path="url(#clipPath2)" stroke="none"/>
    </g>
    <g font-size="15px" stroke-linecap="butt" transform="matrix(1,0,0,1,-584,-457)" text-rendering="geometricPrecision" font-family="sans-serif" shape-rendering="geometricPrecision" stroke-miterlimit="1.45">
      <text x="842.7705" xml:space="preserve" y="1114.6399" clip-path="url(#clipPath2)" stroke="none">Target namespace</text>
      <text x="754.89" xml:space="preserve" font-size="12px" y="1150.2167" clip-path="url(#clipPath2)" stroke="none">namespace \Target</text>
    </g>
    <g stroke-linecap="round" transform="matrix(1,0,0,1,-584,-457)" stroke-dashoffset="2" fill="rgb(102,102,153)" text-rendering="geometricPrecision" shape-rendering="geometricPrecision" stroke-dasharray="0,4" stroke="rgb(102,102,153)" stroke-miterlimit="1.45">
      <rect x="729.1611" y="1097.5594" clip-path="url(#clipPath2)" fill="none" width="240.6777" rx="4" ry="4" height="105.5"/>
    </g>
    <g fill="rgb(255,204,0)" text-rendering="geometricPrecision" shape-rendering="geometricPrecision" transform="matrix(1,0,0,1,-584,-457)" stroke="rgb(255,204,0)">
      <rect x="858.2235" width="70" height="30" y="1158.0594" clip-path="url(#clipPath2)" stroke="none"/>
    </g>
    <g text-rendering="geometricPrecision" stroke-miterlimit="1.45" shape-rendering="geometricPrecision" transform="matrix(1,0,0,1,-584,-457)" stroke-linecap="butt">
      <rect fill="none" x="858.2235" width="70" height="30" y="1158.0594" clip-path="url(#clipPath2)"/>
      <text x="873.8847" xml:space="preserve" y="1177.7732" clip-path="url(#clipPath2)" font-family="sans-serif" stroke="none">class B</text>
    </g>
    <g fill="rgb(255,204,0)" text-rendering="geometricPrecision" shape-rendering="geometricPrecision" transform="matrix(1,0,0,1,-584,-457)" stroke="rgb(255,204,0)">
      <rect x="771.9736" width="70" height="30" y="1158.0594" clip-path="url(#clipPath2)" stroke="none"/>
    </g>
    <g text-rendering="geometricPrecision" stroke-miterlimit="1.45" shape-rendering="geometricPrecision" transform="matrix(1,0,0,1,-584,-457)" stroke-linecap="butt">
      <rect fill="none" x="771.9736" width="70" height="30" y="1158.0594" clip-path="url(#clipPath2)"/>
      <text x="787.6347" xml:space="preserve" y="1177.7732" clip-path="url(#clipPath2)" font-family="sans-serif" stroke="none">class A</text>
    </g>
    <g fill="rgb(204,255,255)" text-rendering="geometricPrecision" shape-rendering="geometricPrecision" transform="matrix(1,0,0,1,-584,-457)" stroke="rgb(204,255,255)">
      <rect x="629.1611" width="70" height="30" y="674.3294" clip-path="url(#clipPath2)" stroke="none"/>
    </g>
    <g text-rendering="geometricPrecision" stroke-miterlimit="1.45" shape-rendering="geometricPrecision" transform="matrix(1,0,0,1,-584,-457)" stroke-linecap="butt">
      <rect fill="none" x="629.1611" width="70" height="30" y="674.3294" clip-path="url(#clipPath2)"/>
      <text x="638.1602" y="694.0432" clip-path="url(#clipPath2)" font-family="sans-serif" stroke="none" font-weight="bold" xml:space="preserve">Module 1</text>
    </g>
    <g fill="rgb(204,255,255)" text-rendering="geometricPrecision" shape-rendering="geometricPrecision" transform="matrix(1,0,0,1,-584,-457)" stroke="rgb(204,255,255)">
      <rect x="629.1611" width="70" height="30" y="822.9894" clip-path="url(#clipPath2)" stroke="none"/>
    </g>
    <g text-rendering="geometricPrecision" stroke-miterlimit="1.45" shape-rendering="geometricPrecision" transform="matrix(1,0,0,1,-584,-457)" stroke-linecap="butt">
      <rect fill="none" x="629.1611" width="70" height="30" y="822.9894" clip-path="url(#clipPath2)"/>
      <text x="638.1602" y="842.7032" clip-path="url(#clipPath2)" font-family="sans-serif" stroke="none" font-weight="bold" xml:space="preserve">Module 2</text>
    </g>
    <g fill="rgb(204,255,255)" text-rendering="geometricPrecision" shape-rendering="geometricPrecision" transform="matrix(1,0,0,1,-584,-457)" stroke="rgb(204,255,255)">
      <rect x="629.1611" width="70" height="30" y="979.1494" clip-path="url(#clipPath2)" stroke="none"/>
    </g>
    <g text-rendering="geometricPrecision" stroke-miterlimit="1.45" shape-rendering="geometricPrecision" transform="matrix(1,0,0,1,-584,-457)" stroke-linecap="butt">
      <rect fill="none" x="629.1611" width="70" height="30" y="979.1494" clip-path="url(#clipPath2)"/>
      <text x="638.1602" y="998.8632" clip-path="url(#clipPath2)" font-family="sans-serif" stroke="none" font-weight="bold" xml:space="preserve">Module 3</text>
    </g>
    <g fill="rgb(255,217,236)" text-rendering="geometricPrecision" shape-rendering="geometricPrecision" transform="matrix(1,0,0,1,-584,-457)" stroke="rgb(255,217,236)">
      <rect x="629.1611" width="70" height="30" y="1135.3094" clip-path="url(#clipPath2)" stroke="none"/>
    </g>
    <g text-rendering="geometricPrecision" stroke-miterlimit="1.45" shape-rendering="geometricPrecision" transform="matrix(1,0,0,1,-584,-457)" stroke-linecap="butt">
      <rect fill="none" x="629.1611" width="70" height="30" y="1135.3094" clip-path="url(#clipPath2)"/>
      <text x="644.1572" y="1147.6726" clip-path="url(#clipPath2)" font-family="sans-serif" stroke="none" font-weight="bold" xml:space="preserve">Target </text>
      <text x="631.4746" y="1162.3738" clip-path="url(#clipPath2)" font-family="sans-serif" stroke="none" font-weight="bold" xml:space="preserve">namespace</text>
      <path fill="none" d="M893.2236 1158.0593 L893.2236 1046.8994" clip-path="url(#clipPath2)"/>
      <path fill="white" d="M893.2236 1031.8994 L887.2236 1047.8994 L899.2236 1047.8994 Z" clip-path="url(#clipPath2)" stroke="none"/>
      <path fill="none" d="M893.2236 1031.8994 L887.2236 1047.8994 L899.2236 1047.8994 Z" clip-path="url(#clipPath2)"/>
      <path fill="none" d="M806.9883 1158.0593 L807.2505 890.7394" clip-path="url(#clipPath2)"/>
      <path fill="white" d="M807.2653 875.7394 L801.2496 891.7335 L813.2496 891.7452 Z" clip-path="url(#clipPath2)" stroke="none"/>
      <path fill="none" d="M807.2653 875.7394 L801.2496 891.7335 L813.2496 891.7452 Z" clip-path="url(#clipPath2)"/>
    </g>
    <g transform="matrix(1,0,0,1,-584,-457)" fill-opacity="0.5176" fill="rgb(202,236,255)" text-rendering="geometricPrecision" shape-rendering="geometricPrecision" stroke="rgb(202,236,255)" stroke-opacity="0.5176">
      <rect x="729.1611" y="472.9194" clip-path="url(#clipPath2)" width="240.6777" rx="4" ry="4" height="105.5" stroke="none"/>
    </g>
    <g fill="rgb(153,204,255)" text-rendering="geometricPrecision" shape-rendering="geometricPrecision" transform="matrix(1,0,0,1,-584,-457)" stroke="rgb(153,204,255)">
      <rect x="729.1611" width="240.6777" height="22.3765" y="472.9194" clip-path="url(#clipPath2)" stroke="none"/>
    </g>
    <g font-size="15px" stroke-linecap="butt" transform="matrix(1,0,0,1,-584,-457)" text-rendering="geometricPrecision" font-family="sans-serif" shape-rendering="geometricPrecision" stroke-miterlimit="1.45">
      <text x="895.2852" xml:space="preserve" y="489.9999" clip-path="url(#clipPath2)" stroke="none">Code base</text>
      <text x="754.89" xml:space="preserve" font-size="12px" y="525.5767" clip-path="url(#clipPath2)" stroke="none">namespace \Code\Base</text>
    </g>
    <g stroke-linecap="round" transform="matrix(1,0,0,1,-584,-457)" stroke-dashoffset="2" fill="rgb(102,102,153)" text-rendering="geometricPrecision" shape-rendering="geometricPrecision" stroke-dasharray="0,4" stroke="rgb(102,102,153)" stroke-miterlimit="1.45">
      <rect x="729.1611" y="472.9194" clip-path="url(#clipPath2)" fill="none" width="240.6777" rx="4" ry="4" height="105.5"/>
    </g>
    <g fill="rgb(255,204,0)" text-rendering="geometricPrecision" shape-rendering="geometricPrecision" transform="matrix(1,0,0,1,-584,-457)" stroke="rgb(255,204,0)">
      <rect x="772.28" width="70" height="30" y="533.4194" clip-path="url(#clipPath2)" stroke="none"/>
    </g>
    <g text-rendering="geometricPrecision" stroke-miterlimit="1.45" shape-rendering="geometricPrecision" transform="matrix(1,0,0,1,-584,-457)" stroke-linecap="butt">
      <rect fill="none" x="772.28" width="70" height="30" y="533.4194" clip-path="url(#clipPath2)"/>
      <text x="787.9412" xml:space="preserve" y="553.1332" clip-path="url(#clipPath2)" font-family="sans-serif" stroke="none">class A</text>
    </g>
    <g fill="rgb(204,255,255)" text-rendering="geometricPrecision" shape-rendering="geometricPrecision" transform="matrix(1,0,0,1,-584,-457)" stroke="rgb(204,255,255)">
      <rect x="629.1611" width="70" height="30" y="510.6694" clip-path="url(#clipPath2)" stroke="none"/>
    </g>
    <g text-rendering="geometricPrecision" stroke-miterlimit="1.45" shape-rendering="geometricPrecision" transform="matrix(1,0,0,1,-584,-457)" stroke-linecap="butt">
      <rect fill="none" x="629.1611" width="70" height="30" y="510.6694" clip-path="url(#clipPath2)"/>
      <text x="638.1602" y="530.3832" clip-path="url(#clipPath2)" font-family="sans-serif" stroke="none" font-weight="bold" xml:space="preserve">Module 0</text>
    </g>
    <g fill="rgb(201,255,201)" text-rendering="geometricPrecision" shape-rendering="geometricPrecision" transform="matrix(1,0,0,1,-584,-457)" stroke="rgb(201,255,201)">
      <rect x="729.1611" width="240.6777" height="68.4" y="1253.7194" clip-path="url(#clipPath2)" stroke="none"/>
    </g>
    <g text-rendering="geometricPrecision" stroke-miterlimit="1.45" shape-rendering="geometricPrecision" transform="matrix(1,0,0,1,-584,-457)" stroke-linecap="butt">
      <rect fill="none" x="729.1611" width="240.6777" height="68.4" y="1253.7194" clip-path="url(#clipPath2)"/>
      <text x="820.1475" xml:space="preserve" y="1292.6332" clip-path="url(#clipPath2)" font-family="sans-serif" stroke="none">Application</text>
      <path fill="none" d="M807.28 697.0793 L807.28 610.3904 L807.28 610.3904 L807.28 578.3977" clip-path="url(#clipPath2)"/>
      <path fill="white" d="M807.28 563.3977 L801.28 579.3977 L813.28 579.3977 Z" clip-path="url(#clipPath2)" stroke="none"/>
      <path fill="none" d="M807.28 563.3977 L801.28 579.3977 L813.28 579.3977 Z" clip-path="url(#clipPath2)"/>
      <path fill="none" d="M650.8978 1135.3093 L614.1611 1093.7626 L614.1611 529.4194" stroke-width="3" clip-path="url(#clipPath2)"/>
      <path fill="white" d="M614.1611 510.6694 L606.6611 530.6694 L621.6611 530.6694 Z" stroke-width="3" clip-path="url(#clipPath2)" stroke="none"/>
      <path fill="none" d="M614.1611 510.6694 L606.6611 530.6694 L621.6611 530.6694 Z" clip-path="url(#clipPath2)"/>
      <path fill="none" d="M836.8376 1253.7194 L816.3466 1198.375" clip-path="url(#clipPath2)"/>
      <path d="M812.5273 1188.0593 L811.0671 1201.396 L822.3206 1197.2295 Z" clip-path="url(#clipPath2)" stroke="none"/>
      <path fill="none" d="M862.5189 1253.7194 L883.6001 1198.3397" clip-path="url(#clipPath2)"/>
      <path d="M887.5135 1188.0594 L877.6369 1197.1398 L888.8518 1201.4089 Z" clip-path="url(#clipPath2)" stroke="none"/>
    </g>
  </g>
</svg>
