<?xml version="1.0" encoding="UTF-8"?><svg xmlns="http://www.w3.org/2000/svg" xmlns:xlink="http://www.w3.org/1999/xlink" fill-opacity="1" color-rendering="auto" color-interpolation="auto" text-rendering="auto" stroke="black" stroke-linecap="square" width="590" stroke-miterlimit="10" shape-rendering="auto" stroke-opacity="1" fill="black" stroke-dasharray="none" font-weight="normal" stroke-width="1" height="448" font-family="'Dialog'" font-style="normal" stroke-linejoin="miter" font-size="12px" stroke-dashoffset="0" image-rendering="auto">
  <!--Generated by ySVG 2.5-->
  <defs id="genericDefs"/>
  <g>
    <defs id="defs1">
      <clipPath clipPathUnits="userSpaceOnUse" id="clipPath1">
        <path d="M0 0 L590 0 L590 448 L0 448 L0 0 Z"/>
      </clipPath>
      <clipPath clipPathUnits="userSpaceOnUse" id="clipPath2">
        <path d="M121 209 L711 209 L711 657 L121 657 L121 209 Z"/>
      </clipPath>
    </defs>
    <g fill="white" text-rendering="geometricPrecision" shape-rendering="geometricPrecision" transform="translate(-121,-209)" stroke="white">
      <rect x="121" width="590" height="448" y="209" clip-path="url(#clipPath2)" stroke="none"/>
    </g>
    <g transform="matrix(1,0,0,1,-121,-209)" fill-opacity="0.5176" fill="rgb(202,236,255)" text-rendering="geometricPrecision" shape-rendering="geometricPrecision" stroke="rgb(202,236,255)" stroke-opacity="0.5176">
      <rect x="291.6611" y="224" clip-path="url(#clipPath2)" width="240.6777" rx="4" ry="4" height="105.5" stroke="none"/>
    </g>
    <g fill="rgb(153,204,255)" text-rendering="geometricPrecision" shape-rendering="geometricPrecision" transform="matrix(1,0,0,1,-121,-209)" stroke="rgb(153,204,255)">
      <rect x="291.6611" width="240.6777" height="22.3765" y="224" clip-path="url(#clipPath2)" stroke="none"/>
    </g>
    <g font-size="15px" stroke-linecap="butt" transform="matrix(1,0,0,1,-121,-209)" text-rendering="geometricPrecision" font-family="sans-serif" shape-rendering="geometricPrecision" stroke-miterlimit="1.45">
      <text x="457.7852" xml:space="preserve" y="241.0806" clip-path="url(#clipPath2)" stroke="none">Code base</text>
      <text x="317.3899" xml:space="preserve" font-size="12px" y="276.6573" clip-path="url(#clipPath2)" stroke="none">namespace \Code\Base</text>
    </g>
    <g stroke-linecap="round" transform="matrix(1,0,0,1,-121,-209)" stroke-dashoffset="2" fill="rgb(102,102,153)" text-rendering="geometricPrecision" shape-rendering="geometricPrecision" stroke-dasharray="0,4" stroke="rgb(102,102,153)" stroke-miterlimit="1.45">
      <rect x="291.6611" y="224" clip-path="url(#clipPath2)" fill="none" width="240.6777" rx="4" ry="4" height="105.5"/>
    </g>
    <g fill="rgb(255,204,0)" text-rendering="geometricPrecision" shape-rendering="geometricPrecision" transform="matrix(1,0,0,1,-121,-209)" stroke="rgb(255,204,0)">
      <rect x="334.78" width="70" height="30" y="284.5" clip-path="url(#clipPath2)" stroke="none"/>
    </g>
    <g text-rendering="geometricPrecision" stroke-miterlimit="1.45" shape-rendering="geometricPrecision" transform="matrix(1,0,0,1,-121,-209)" stroke-linecap="butt">
      <rect fill="none" x="334.78" width="70" height="30" y="284.5" clip-path="url(#clipPath2)"/>
      <text x="350.4411" xml:space="preserve" y="304.2139" clip-path="url(#clipPath2)" font-family="sans-serif" stroke="none">class A</text>
    </g>
    <g transform="matrix(1,0,0,1,-121,-209)" fill-opacity="0.5176" fill="rgb(202,236,255)" text-rendering="geometricPrecision" shape-rendering="geometricPrecision" stroke="rgb(202,236,255)" stroke-opacity="0.5176">
      <rect x="136.7811" y="380.16" clip-path="url(#clipPath2)" width="240.6777" rx="4" ry="4" height="105.5" stroke="none"/>
    </g>
    <g fill="rgb(153,204,255)" text-rendering="geometricPrecision" shape-rendering="geometricPrecision" transform="matrix(1,0,0,1,-121,-209)" stroke="rgb(153,204,255)">
      <rect x="136.7811" width="240.6777" height="22.3765" y="380.16" clip-path="url(#clipPath2)" stroke="none"/>
    </g>
    <g font-size="15px" stroke-linecap="butt" transform="matrix(1,0,0,1,-121,-209)" text-rendering="geometricPrecision" font-family="sans-serif" shape-rendering="geometricPrecision" stroke-miterlimit="1.45">
      <text x="321.2523" xml:space="preserve" y="397.2406" clip-path="url(#clipPath2)" stroke="none">Plugin 1</text>
      <text x="162.5099" xml:space="preserve" font-size="12px" y="432.8173" clip-path="url(#clipPath2)" stroke="none">namespace \Plugin1</text>
    </g>
    <g stroke-linecap="round" transform="matrix(1,0,0,1,-121,-209)" stroke-dashoffset="2" fill="rgb(102,102,153)" text-rendering="geometricPrecision" shape-rendering="geometricPrecision" stroke-dasharray="0,4" stroke="rgb(102,102,153)" stroke-miterlimit="1.45">
      <rect x="136.7811" y="380.16" clip-path="url(#clipPath2)" fill="none" width="240.6777" rx="4" ry="4" height="105.5"/>
    </g>
    <g fill="rgb(255,204,0)" text-rendering="geometricPrecision" shape-rendering="geometricPrecision" transform="matrix(1,0,0,1,-121,-209)" stroke="rgb(255,204,0)">
      <rect x="179.9" width="70" height="30" y="440.66" clip-path="url(#clipPath2)" stroke="none"/>
    </g>
    <g text-rendering="geometricPrecision" stroke-miterlimit="1.45" shape-rendering="geometricPrecision" transform="matrix(1,0,0,1,-121,-209)" stroke-linecap="butt">
      <rect fill="none" x="179.9" width="70" height="30" y="440.66" clip-path="url(#clipPath2)"/>
      <text x="195.5611" xml:space="preserve" y="460.3739" clip-path="url(#clipPath2)" font-family="sans-serif" stroke="none">class A</text>
      <path fill="none" d="M229.7771 440.66 L344.3401 325.1501" clip-path="url(#clipPath2)"/>
      <path fill="white" d="M354.903 314.5 L339.3758 321.635 L347.896 330.0853 Z" clip-path="url(#clipPath2)" stroke="none"/>
      <path fill="none" d="M354.903 314.5 L339.3758 321.635 L347.896 330.0853 Z" clip-path="url(#clipPath2)"/>
    </g>
    <g transform="matrix(1,0,0,1,-121,-209)" fill-opacity="0.5176" fill="rgb(202,236,255)" text-rendering="geometricPrecision" shape-rendering="geometricPrecision" stroke="rgb(202,236,255)" stroke-opacity="0.5176">
      <rect x="455.0247" y="380.16" clip-path="url(#clipPath2)" width="240.6777" rx="4" ry="4" height="105.5" stroke="none"/>
    </g>
    <g fill="rgb(153,204,255)" text-rendering="geometricPrecision" shape-rendering="geometricPrecision" transform="matrix(1,0,0,1,-121,-209)" stroke="rgb(153,204,255)">
      <rect x="455.0247" width="240.6777" height="22.3765" y="380.16" clip-path="url(#clipPath2)" stroke="none"/>
    </g>
    <g font-size="15px" stroke-linecap="butt" transform="matrix(1,0,0,1,-121,-209)" text-rendering="geometricPrecision" font-family="sans-serif" shape-rendering="geometricPrecision" stroke-miterlimit="1.45">
      <text x="639.4958" xml:space="preserve" y="397.2406" clip-path="url(#clipPath2)" stroke="none">Plugin 2</text>
      <text x="480.7535" xml:space="preserve" font-size="12px" y="432.8173" clip-path="url(#clipPath2)" stroke="none">namespace \Plugin2</text>
    </g>
    <g stroke-linecap="round" transform="matrix(1,0,0,1,-121,-209)" stroke-dashoffset="2" fill="rgb(102,102,153)" text-rendering="geometricPrecision" shape-rendering="geometricPrecision" stroke-dasharray="0,4" stroke="rgb(102,102,153)" stroke-miterlimit="1.45">
      <rect x="455.0247" y="380.16" clip-path="url(#clipPath2)" fill="none" width="240.6777" rx="4" ry="4" height="105.5"/>
    </g>
    <g fill="rgb(255,204,0)" text-rendering="geometricPrecision" shape-rendering="geometricPrecision" transform="matrix(1,0,0,1,-121,-209)" stroke="rgb(255,204,0)">
      <rect x="498.1435" width="70" height="30" y="440.66" clip-path="url(#clipPath2)" stroke="none"/>
    </g>
    <g text-rendering="geometricPrecision" stroke-miterlimit="1.45" shape-rendering="geometricPrecision" transform="matrix(1,0,0,1,-121,-209)" stroke-linecap="butt">
      <rect fill="none" x="498.1435" width="70" height="30" y="440.66" clip-path="url(#clipPath2)"/>
      <text x="513.8047" xml:space="preserve" y="460.3739" clip-path="url(#clipPath2)" font-family="sans-serif" stroke="none">class A</text>
    </g>
    <g fill="rgb(255,204,0)" text-rendering="geometricPrecision" shape-rendering="geometricPrecision" transform="matrix(1,0,0,1,-121,-209)" stroke="rgb(255,204,0)">
      <rect x="584.0871" width="70" height="30" y="440.66" clip-path="url(#clipPath2)" stroke="none"/>
    </g>
    <g text-rendering="geometricPrecision" stroke-miterlimit="1.45" shape-rendering="geometricPrecision" transform="matrix(1,0,0,1,-121,-209)" stroke-linecap="butt">
      <rect fill="none" x="584.0871" width="70" height="30" y="440.66" clip-path="url(#clipPath2)"/>
      <text x="599.7482" xml:space="preserve" y="460.3739" clip-path="url(#clipPath2)" font-family="sans-serif" stroke="none">class B</text>
      <path fill="none" d="M517.4516 440.66 L396.3149 324.8648" clip-path="url(#clipPath2)"/>
      <path fill="white" d="M385.4719 314.5 L392.8918 329.893 L401.1837 321.2186 Z" clip-path="url(#clipPath2)" stroke="none"/>
      <path fill="none" d="M385.4719 314.5 L392.8918 329.893 L401.1837 321.2186 Z" clip-path="url(#clipPath2)"/>
    </g>
    <g transform="matrix(1,0,0,1,-121,-209)" fill-opacity="0.5176" fill="rgb(202,236,255)" text-rendering="geometricPrecision" shape-rendering="geometricPrecision" stroke="rgb(202,236,255)" stroke-opacity="0.5176">
      <rect x="455.0247" y="536.32" clip-path="url(#clipPath2)" width="240.6777" rx="4" ry="4" height="105.5" stroke="none"/>
    </g>
    <g fill="rgb(153,204,255)" text-rendering="geometricPrecision" shape-rendering="geometricPrecision" transform="matrix(1,0,0,1,-121,-209)" stroke="rgb(153,204,255)">
      <rect x="455.0247" width="240.6777" height="22.3765" y="536.32" clip-path="url(#clipPath2)" stroke="none"/>
    </g>
    <g font-size="15px" stroke-linecap="butt" transform="matrix(1,0,0,1,-121,-209)" text-rendering="geometricPrecision" font-family="sans-serif" shape-rendering="geometricPrecision" stroke-miterlimit="1.45">
      <text x="639.4958" xml:space="preserve" y="553.4006" clip-path="url(#clipPath2)" stroke="none">Plugin 3</text>
      <text x="480.7535" xml:space="preserve" font-size="12px" y="588.9773" clip-path="url(#clipPath2)" stroke="none">namespace \Plugin3</text>
    </g>
    <g stroke-linecap="round" transform="matrix(1,0,0,1,-121,-209)" stroke-dashoffset="2" fill="rgb(102,102,153)" text-rendering="geometricPrecision" shape-rendering="geometricPrecision" stroke-dasharray="0,4" stroke="rgb(102,102,153)" stroke-miterlimit="1.45">
      <rect x="455.0247" y="536.32" clip-path="url(#clipPath2)" fill="none" width="240.6777" rx="4" ry="4" height="105.5"/>
    </g>
    <g fill="rgb(255,204,0)" text-rendering="geometricPrecision" shape-rendering="geometricPrecision" transform="matrix(1,0,0,1,-121,-209)" stroke="rgb(255,204,0)">
      <rect x="584.0871" width="70" height="30" y="596.82" clip-path="url(#clipPath2)" stroke="none"/>
    </g>
    <g text-rendering="geometricPrecision" stroke-miterlimit="1.45" shape-rendering="geometricPrecision" transform="matrix(1,0,0,1,-121,-209)" stroke-linecap="butt">
      <rect fill="none" x="584.0871" width="70" height="30" y="596.82" clip-path="url(#clipPath2)"/>
      <text x="599.7482" xml:space="preserve" y="616.5339" clip-path="url(#clipPath2)" font-family="sans-serif" stroke="none">class B</text>
      <path fill="none" d="M619.0871 596.82 L619.0871 485.66" clip-path="url(#clipPath2)"/>
      <path fill="white" d="M619.0871 470.66 L613.0871 486.66 L625.0871 486.66 Z" clip-path="url(#clipPath2)" stroke="none"/>
      <path fill="none" d="M619.0871 470.66 L613.0871 486.66 L625.0871 486.66 Z" clip-path="url(#clipPath2)"/>
    </g>
  </g>
</svg>
